<svg id="Layer_1" data-name="Layer 1" xmlns="http://www.w3.org/2000/svg" viewBox="0 0 600 200"><defs><style>.cls-1{font-size:144px;font-family:Lobster-Regular, Lobster;}.cls-1,.cls-2{fill:#157efb;}.cls-2{fill-rule:evenodd;}</style></defs><title>Artboard 1</title><text class="cls-1" transform="translate(156.94 164.73)">Ponente</text><path id="wind" class="cls-2" d="M149.5,71.33a21.34,21.34,0,0,0-42.67,0H117.5A10.67,10.67,0,1,1,128.15,82H5.5V92.67H128.17A21.35,21.35,0,0,0,149.5,71.33ZM101.5,50a21.34,21.34,0,0,0-42.67,0v0H69.5A10.67,10.67,0,1,1,80.14,60.67h-64V71.33h64A21.33,21.33,0,0,0,101.5,50Zm26.67,69.33a16,16,0,0,1-16,16h0a16,16,0,0,1-16-16v0h10.66a5.33,5.33,0,0,0,5.34,5.34h0a5.32,5.32,0,0,0,5.33-5.34h0a5.34,5.34,0,0,0-5.37-5.33H37.5V103.33h74.67a16,16,0,0,1,16,16Z"/></svg>